<?xml version="1.0" encoding="utf-8"?>
<!-- Generator: Adobe Illustrator 17.0.0, SVG Export Plug-In . SVG Version: 6.00 Build 0)  -->
<!DOCTYPE svg PUBLIC "-//W3C//DTD SVG 1.1//EN" "http://www.w3.org/Graphics/SVG/1.1/DTD/svg11.dtd">
<svg version="1.1" id="Layer_1" xmlns="http://www.w3.org/2000/svg" xmlns:xlink="http://www.w3.org/1999/xlink" x="0px" y="0px"
	 width="120px" height="40px" viewBox="0 0 120 40" enable-background="new 0 0 120 40" xml:space="preserve">
<path fill="#FFFFF0" d="M0,0v40h40V0H0z M25.4,20h-3.5c0,5.6,0,12.5,0,12.5h-5.2c0,0,0-6.8,0-12.5h-2.5v-4.4h2.5v-2.9
	c0-2,1-5.2,5.2-5.2h3.8v4.3c0,0-2.3,0-2.8,0S21.8,12,21.8,13v2.6h4L25.4,20z"/>
<path fill="#FFFFF0" d="M40,0v40h40V0H40z M65.7,32.5c-0.9,0-5.7-0.1-7-0.1c-1.2,0-7.7-2-7.7-9.1c0-1.3,0-2.5,0-3.8
	c0-1.2,0-2.4,0-3.5c0-0.3,0-0.7,0-1c0-1.8-0.2-3.8,0.4-5.5c0.4-1.3,1.5-1.8,2.8-1.8c3.1,0,3.3,3.2,3.3,6.4h9c1.4,0,2.5,1.4,2.5,3.7
	c0,2.2-2.3,2.7-3.5,2.7h-8.1c0,1.3-0.1,2.5-0.1,3.1c0,1.4,0.5,2.9,4,2.9h4.8c1.2,0,3,0.9,3,3.5C69.1,32.3,66.6,32.5,65.7,32.5z"/>
<g>
	<path fill="#FFFFF0" d="M100,24.4c2.4,0,4.4-2,4.4-4.4c0-1-0.3-1.8-0.8-2.6c-0.8-1.1-2.1-1.8-3.6-1.8s-2.8,0.7-3.6,1.8
		c-0.5,0.7-0.8,1.6-0.8,2.6C95.6,22.4,97.6,24.4,100,24.4z"/>
	<polygon fill="#FFFFF0" points="109.6,14.6 109.6,10.9 109.6,10.4 109.1,10.4 105.4,10.4 105.4,14.6 	"/>
	<path fill="#FFFFF0" d="M106.8,20c0,3.8-3.1,6.8-6.8,6.8c-3.8,0-6.8-3.1-6.8-6.8c0-0.9,0.2-1.8,0.5-2.6H90v10.2
		c0,1.3,1.1,2.4,2.4,2.4h15.3c1.3,0,2.4-1.1,2.4-2.4V17.4h-3.7C106.7,18.2,106.8,19.1,106.8,20z"/>
	<path fill="#FFFFF0" d="M80,0v40h40V0H80z M112.5,17.4v10.2c0,2.7-2.2,4.8-4.8,4.8H92.3c-2.7,0-4.8-2.2-4.8-4.8V17.4v-5.1
		c0-2.7,2.2-4.8,4.8-4.8h15.3c2.7,0,4.8,2.2,4.8,4.8L112.5,17.4L112.5,17.4z"/>
</g>
</svg>
