<?xml version="1.0" encoding="utf-8"?>
<!-- Generator: Adobe Illustrator 17.0.0, SVG Export Plug-In . SVG Version: 6.00 Build 0)  -->
<!DOCTYPE svg PUBLIC "-//W3C//DTD SVG 1.1//EN" "http://www.w3.org/Graphics/SVG/1.1/DTD/svg11.dtd">
<svg version="1.1" id="Layer_1" xmlns="http://www.w3.org/2000/svg" xmlns:xlink="http://www.w3.org/1999/xlink" x="0px" y="0px"
	 width="223.8px" height="185.5px" viewBox="0 0 223.8 185.5" style="enable-background:new 0 0 223.8 185.5;" xml:space="preserve"
	>
<style type="text/css">
	.st0{fill:#FFFFFF;}
</style>
<g>
	<path class="st0" d="M56.9,82.8c2.1-3.3,2.4-2.8,4.4-6.5c23.1,19.4,44.4,36.2,67.2,55.4c-4.6,7.8-7.2,12.8-11.8,20.2
		c-3.7,5.9-2.7,12.2-2.4,18.6c0.2,4.6,0,9.3-0.6,13.8c-0.1,0.7-3.2,1.5-5,1.5c-3.6,0.2-7.2-0.1-10.8-0.2c-2.1,0-4.3-0.1-6.5-0.1
		c-11.3-0.1-22.5-0.1-33.8-0.2c-4,0-8-0.2-11.9-0.1c-2.9,0-5.7,0.2-8.6,0.4c-2.5,0.2-4.3-0.2-3.7-3.4c0.3-1.6,0.2-3.2,0.2-4.8
		c0.1-8,0-16.1,0.1-24.1c0.1-11.6-3.6-22.3-7-33.1c-2.4-7.7-4.4-15.5-6.9-23.1c-1.7-5.3-4.1-10.4-6-15.6c-0.2-0.6,0-1.4,0.3-2
		c1.7-3.3,3.3-6.7,5.1-10c3.4-6.2,6.9-12.5,10.3-18.7c2.3-4.2,4.6-8.3,7-12.4c0.4-0.6,1.3-1.3,2-1.3c5.3-0.5,10.6-0.6,15.9-1.1
		c6.1-0.6,12.2-1.5,18.3-2.2c4.4-0.5,8.9-0.8,13.3-1.2c0.8-0.1,1.7-0.1,2.5-0.3c3.8-1,5.3,0,4.9,3.8c-0.5,4.7-1.8,7.3-3.6,11.6
		c-2.1,5.1-6.5,8.8-11.8,10.6c-4.8,2.3-11.9,2.3-15.1,2.9c-1.5,0.3-3.5,1.9-3.9,3.1c-0.3,0.8-2.7,7.5-3,8.1
		c-0.8,1.5-2.5,6.3-3.3,7.8C53.2,80.1,56.5,82.6,56.9,82.8z"/>
	<path class="st0" d="M123.3,116.2c2.4,2.7,9.6,4.9,14.6,0.8c3.2-2.1,7.1-7,7.1-7s5.5-8.1,6-8.9c3.9,2.7,5.6,4.4,9.2,7
		c2.5,1.8,1.2,3.6-0.4,5c-5.4,4.6-8.4,10.6-10.9,17.1c-0.9,2.3-2.1,7.3-2.1,7.3l-20.2-14.4l-21.1-17.6L90.2,92.9
		c0,0-22.1-18.4-24.5-20c-1.2-0.9-2.8-2.5-3.3-3.6c0.1-1.3-0.1-2.2,1.5-3.4c0.5-0.7,3.7-1,4.8-1.1c3-0.3,6-1,9-1.6
		c1.5-0.3,0.6,0.1,2.6-0.6c-0.4,1.5-0.7,1.1-1,2.2c-1.3,1.8-2.8,3.9-4,5.6c1.5,3.5,2.5,7.9,6.8,9.9c0-0.1,1.2,0.2,1.2,0.2
		c-0.2-0.4-1-2.2-1.2-2.6c-2.3-4-3.2-6-1.7-8.2c0.2-0.3,2.1-3.4,2.4-3.9c0.3-0.5,0.3-0.6,0.6-0.9c2.6-3.7,5.2-7.5,7.5-11.4
		c2.8-4.8,5.2-9.8,7.9-14.6c3.3-5.9,6.9-11.6,10-17.6c3-5.9,14.2-3.5,16.2,2.1c2.1,7.1-3,12.5-5,19.6c0.4,0.2,2.6,1.6,2.6,1.6
		c1.6-2,2.7-3.7,3.3-4.3c3.8-3,8.5-2.6,11.8,0c7.5,5.8,5.1,12.9,1.5,21.5c-2.1,3.7-2.6,5.6-5.3,10c-0.4,0.8-1,1.3-1.1,2.3
		c0.3,0.2,0.2,1.3,0.5,1.5c1.7,0.6,2.9-0.8,3.8-1.7c1.3-1.4,3.7-5.6,4.4-6.3c3.6-4.2,8.4-4.9,12.7-2.1c5.4,3.5,6.3,9.5,4,15.4
		c-2.1,5.2-3.2,6.5-5.9,11.4c-7,12.2-2.5,4.5-7.7,13c-1.8,2.9-4.4,5.3-7,7.6c-2.9,2.6-6.7,3.7-10,1.6c-0.8-0.5-3-2.8-3.6-3.6
		c-3.5-5.1-5.1-9.4-2.3-14.1c0.4-1.2,3.3-5.6,4.4-7.9c0.5-2.2-1.3-1.7-2-0.7c-3.5,4.9-7.5,14.7-15.3,12.8c0.1,0.4-0.2,2.3-0.1,2.7
		c2.7,0.1,5.7,0.2,8.3,0.4c0.6,2.4,0.8,4,1.8,6C119.3,111.2,122,115.1,123.3,116.2z M117,48.4c-2.8,5-4.3,8-7.1,13
		c-2.4,4.3-4.8,8.6-7.2,12.9c-2.1,3.7-5.6,6.5-7.8,10.5c0.7,2.4,3.5,7,4.4,10.1c0.4-0.1,2.2-0.7,2.6-0.9c-0.1-0.6-0.9-1.9-1.1-2.5
		c-1-3.4-0.8-5.2,0.2-8c1.5-4,4.3-7.4,6.5-11.1c1.3-2.1,2.6-4.3,3.8-6.4c3.3-6.1,7.3-13.7,8.5-16.2"/>
	<path class="st0" d="M205.1,181.2c-2,1-3.6,2.1-5.3,2.8c-10.8,2.7-19.2,1.7-30.2-2c-4.3-2.7-11.1-9.9-14.9-17.1
		c-3.2-6.2-5.4-13.2-4.8-20c1-11,6.6-23.2,12.1-27.4c0.5-0.6,4-3.1,5.3-4.1c2-1.6,7.5-5.2,12.4-6.1c2.5-0.4,5.9-0.7,8.8-0.5
		c11.8,0.8,21.2,6.1,27.9,16c4.6,6.9,7.3,14.4,7,22.8c-0.1,1.8,0.6,3.6,0.4,5.4c-0.3,3.1-1.8,3.9-4.2,2c-3-2.3-5.6-5.2-8.5-7.7
		c-4-3.5-8.1-7-12.3-10.2c-2.6-2-5.2-4.1-8.8-4.8c-8-1.5-17.3,2.3-18.3,11.6c-0.4,3.4-0.8,7-0.4,10.3c0.7,5.2,4.6,8.3,8.8,11.1
		c7.8,5.2,15.5,10.6,23.2,15.9C203.8,179.6,204.2,180.2,205.1,181.2z"/>
	<path class="st0" d="M60.8,28c-5.4,0.5-9.7,1-14.1,1.4c-4.9,0.4-9.8,0.4-14.6,1.3c-1.7,0.4-3.1,3-4.4,4.8c-1.1,1.5-1.9,3.3-3.1,5.4
		c-2.3-1.8-4.2-3.7-6.4-5c-4.2-2.6-4.1-2.1-8.7-3.9c-8-3.3-12.4-12.3-7.5-20.6c2.3-3.9,3.8-8.2,8.7-10.1C17.1-1.3,21.9,0.2,27,4.3
		c7.1,5.7,10.3,7.3,17.8,12.6C49.8,20.5,54.9,23.9,60.8,28z"/>
	<path class="st0" d="M96.9,34.4c-1-0.5-0.1-4.9-0.2-6.4c-0.3-3.6-1.4-4.1-5-3.5c-5.7,1-11.5,1.6-17.8,2.5c3.1-5.4,4.8-6.3,7.7-10.9
		c2.5-4.1,4.8-8.4,8-11.8c5.3-5.6,14.2-2.6,16.7,4.8c1.6,4.8,0.9,8.8-1.7,12.9C101.9,26.1,97.8,34,96.9,34.4z"/>
</g>
</svg>
